<?xml version="1.0" encoding="UTF-8"?>
<svg xmlns="http://www.w3.org/2000/svg" viewBox="0 0 174 174" width="174" height="174" role="img" aria-labelledby="title desc">
  <title id="title">Crestwood Church Alternate Square Logo</title>
  <desc id="desc">Alternate Crestwood Church square logo with open frame and centered Raleway wordmark.</desc>
  <g>
    <rect x="14" y="13" width="105" height="11" fill="#003848"/>
    <rect x="14" y="13" width="11" height="142" fill="#003848"/>
    <rect x="148" y="15" width="11" height="143" fill="#003848"/>
    <rect x="58" y="148" width="101" height="11" fill="#003848"/>
    <path fill="#003848" transform="matrix(0.01300000 0 0 -0.01300000 36.000 78.000)" d="M31.33357070193286 360.4509664292981Q31.33357070193286 425.4509664292981 54.73550356052899 487.9509664292981Q78.13743641912512 550.4509664292981 123.21581892166836 601.7254832146491Q168.2942014242116 653 233.32355035605292 683.5Q298.3528992878942 714 380.60773143438456 714Q478.76449643947103 714 550.3722278738555 670.9509664292981Q621.97995930824 627.9019328585962 656.7838250254324 559L550.6084435401831 485.942014242116Q533.2161749745676 526.4323499491353 504.32390640895215 549.5501017293998Q475.4316378433367 572.6678535096643 441.9903357070193 582.0894710071211Q408.5490335707019 591.5110885045779 376.60773143438456 591.5110885045779Q325.27416073245166 591.5110885045779 286.5386571719227 570.8933367243134Q247.8031536113937 550.2755849440489 221.98926754832146 516.1381485249237Q196.17538148524923 482.0007121057986 183.38118006103764 439.9416581892167Q170.58697863682602 397.8826042726348 170.58697863682602 355.5490335707019Q170.58697863682602 308.66642929806716 185.70473041709053 265.3328585961343Q200.82248219735504 221.99928789420142 228.41088504577823 188.63636826042725Q255.99928789420142 155.27344862665308 294.4602746693795 135.88118006103764Q332.9212614445575 116.48891149542217 379.15676500508647 116.48891149542217Q411.6471007121058 116.48891149542217 445.68646998982706 127.45956256358087Q479.72583926754834 138.43021363173958 508.7652085452696 162.096998982706Q537.8045778229908 185.76378433367245 554.1968463886063 224.35218718209563L667.078026449644 159Q645.5289928789421 106.45096642929806 598.1760935910479 69.45096642929806Q550.8231943031536 32.45096642929807 491.84287894201424 13.225483214649035Q432.86256358087485 -6 375.15676500508647 -6Q299.4509664292981 -6 236.4216174974568 25.5Q173.39226856561547 57 127.53936927772126 109.5Q81.68646998982706 162 56.51002034587996 227.5Q31.33357070193286 293 31.33357070193286 360.4509664292981Z"/>
    <path fill="#003848" transform="matrix(0.01300000 0 0 -0.01300000 47.018 78.000)" d="M74.17680569684639 0V710H388.0980671414039Q437.3528992878942 710 478.6077314343845 689.8235503560529Q519.8625635808748 669.6471007121058 550.215462868769 635.7942014242117Q580.5683621566633 601.9413021363174 597.2448118006104 559.8629196337741Q613.9212614445574 517.7845371312309 613.9212614445574 474.4316378433367Q613.9212614445574 429.0393692777213 598.352543234995 387.74516785350966Q582.7838250254324 346.4509664292981 554.0189725330621 315.22548321464905Q525.2541200406918 284 486.1166836215666 267.0393692777213L648.1954221770092 0H495.68718209562564L350.3729399796541 238.31424211597152H211.52828077314342V0ZM211.52828077314342 358.90122075279754H385.0393692777213Q410.7652085452696 358.90122075279754 430.8242624618515 374.2151068158698Q450.8833163784334 389.528992878942 462.77558494404883 415.86256358087485Q474.66785350966427 442.19613428280775 474.66785350966427 474.4316378433367Q474.66785350966427 507.66714140386574 460.9520345879959 533.5007121057986Q447.23621566632755 559.3342828077315 425.67716174974566 574.3736520854527Q404.1181078331638 589.4130213631739 379.4903357070193 589.4130213631739H211.52828077314342Z"/>
    <path fill="#003848" transform="matrix(0.01300000 0 0 -0.01300000 57.763 78.000)" d="M567 120.58697863682605V0H74.17680569684639V710H558V589.4130213631739H211.52828077314342V418.0386571719227H510.7057985757884V305.6084435401831H211.52828077314342V120.58697863682605Z"/>
    <path fill="#003848" transform="matrix(0.01300000 0 0 -0.01300000 67.676 78.000)" d="M497.0393692777213 523.5697863682605Q490.4509664292981 531.2562563580875 471.80386571719225 542.9033570701934Q453.15676500508647 554.5504577822991 426.80386571719225 565.9523906408951Q400.4509664292981 577.3543234994913 369.3725839267548 585.4327060020346Q338.2942014242116 593.5110885045779 306.2942014242116 593.5110885045779Q249.99928789420142 593.5110885045779 221.37151576805695 572.8833163784334Q192.7437436419125 552.2555442522889 192.7437436419125 514.0393692777212Q192.7437436419125 485.0586978636826 210.93987792472024 468.0193285859614Q229.13601220752795 450.9799593082401 265.22441505595117 439.2347914547304Q301.31281790437436 427.4896236012207 354.9405900305188 413.3915564598169Q425.33285859613426 395.5876907426246 476.6270600203459 371.2347914547304Q527.9212614445574 346.8818921668362 555.5683621566633 307.4799593082401Q583.2154628687691 268.07802644964397 583.2154628687691 202.72512716174975Q583.2154628687691 145.86256358087488 562.1370803662259 105.65676500508647Q541.0586978636826 65.45096642929806 504.25483214649034 40.27451678535097Q467.4509664292981 15.098067141403867 420.0 3.5980671414038663Q372.5490335707019 -7.901932858596134 319.80386571719225 -7.901932858596134Q267.15676500508647 -7.901932858596134 213.85289928789422 3.147100712105799Q160.54903357070194 14.196134282807732 111.84323499491353 34.6177517802645Q63.13743641912512 55.03936927772126 21.784537131230927 84.43163784333672L83.27416073245168 203.27344862665308Q92.0586978636826 193.93987792472024 115.07838250254323 179.46922685656153Q138.09806714140387 164.99857578840283 170.82355035605292 150.54760935910477Q203.54903357070194 136.0966429298067 242.67644964394708 126.01826042726347Q281.80386571719225 115.93987792472024 322.25483214649034 115.93987792472024Q378.4123092573754 115.93987792472024 407.1087995930824 134.87151576805695Q435.8052899287894 153.80315361139367 435.8052899287894 189.21546286876907Q435.8052899287894 220.6471007121058 412.9817395727365 239.01002034587998Q390.15818921668364 257.3729399796541 348.8933367243134 270.8926246185148Q307.62848423194305 284.4123092573754 252.00071210579858 299.5103763987793Q184.51037639877924 318.86327568667343 139.56907426246187 342.6181078331638Q94.62777212614446 366.3729399796541 72.60808748728383 402.0493896236012Q50.58840284842319 437.72583926754834 50.58840284842319 491.92197355035603Q50.58840284842319 564.8826042726348 85.39226856561547 614.5884028484231Q120.19613428280773 664.2942014242116 179.3235503560529 689.8725839267548Q238.45096642929806 715.4509664292981 310.0980671414039 715.4509664292981Q359.9019328585961 715.4509664292981 404.5586978636826 704.3235503560529Q449.21546286876907 693.1961342828077 488.14674465920655 675.1961342828077Q527.078026449644 657.1961342828077 557.97995930824 636.2548321464903Z"/>
    <path fill="#003848" transform="matrix(0.01300000 0 0 -0.01300000 77.745 78.000)" d="M604.6664292980671 589.4130213631739H378.1560528992879V0H240.80457782299084V589.4130213631739H13.84323499491353V710H604.6664292980671Z"/>
    <path fill="#003848" transform="matrix(0.01300000 0 0 -0.01300000 87.892 78.000)" d="M317.4910478128179 707.8038657171923H444.8818921668362L525.8038657171923 473.43092573753813L607.7258392675483 707.8038657171923H735.1166836215666L613.4695829094608 385.27487283825025L703.4509664292981 159.01790437436418L904.2168870803662 710H1053.6270600203459L769.7050864699899 0H650.6671414038657L526.3528992878942 298.4717192268566L401.9405900305188 0H282.9026449643947L-0.47029501525940987 710H147.93987792472024L349.7057985757884 159.01790437436418L438.23621566632755 385.27487283825025Z"/>
    <path fill="#003848" transform="matrix(0.01300000 0 0 -0.01300000 103.681 78.000)" d="M376.60773143438456 -5.4509664292980675Q298.9019328585961 -5.4509664292980675 235.64710071210578 24.774516785350965Q172.39226856561547 55 126.53936927772126 106.5Q80.68646998982706 158 56.01002034587996 222.5Q31.33357070193286 287 31.33357070193286 355.4509664292981Q31.33357070193286 426.4509664292981 57.51002034587996 490.72548321464905Q83.68646998982706 555 130.53936927772128 605.5Q177.39226856561547 656 240.87258392675483 685.2745167853509Q304.3528992878942 714.5490335707019 379.5096642929807 714.5490335707019Q457.21546286876907 714.5490335707019 520.4702950152594 683.7745167853509Q583.7251271617497 653 629.0780264496439 601.0Q674.4309257375381 549 699.1073753814853 484.77451678535095Q723.7838250254324 420.5490335707019 723.7838250254324 353.0980671414039Q723.7838250254324 282.5490335707019 698.1073753814853 218.27451678535095Q672.4309257375381 154 625.5780264496439 103.5Q578.7251271617497 53 515.4702950152594 23.774516785350965Q452.21546286876907 -5.4509664292980675 376.60773143438456 -5.4509664292980675ZM170.58697863682602 354.5490335707019Q170.58697863682602 308.66642929806716 184.70473041709053 265.8328585961343Q198.82248219735504 222.99928789420142 225.41088504577823 189.63636826042725Q251.99928789420142 156.27344862665308 290.4602746693795 136.6556968463886Q328.9212614445575 117.03794506612411 378.0586978636826 117.03794506612411Q428.2942014242116 117.03794506612411 466.9806714140386 137.43021363173958Q505.6671414038657 157.82248219735504 531.7555442522889 192.18540183112918Q557.8439471007121 226.54832146490335 571.1871820956256 269.10737538148527Q584.5304170905392 311.66642929806716 584.5304170905392 355.4509664292981Q584.5304170905392 401.33357070193284 570.4126653102746 443.6671414038657Q556.2949135300101 486.0007121057986 529.431993896236 519.6381485249237Q502.56907426246187 553.2755849440489 464.15712105798576 572.3933367243134Q425.74516785350966 591.5110885045779 377.60773143438456 591.5110885045779Q327.37222787385554 591.5110885045779 288.9112410986775 571.3933367243134Q250.4502543234995 551.2755849440489 224.13636826042728 517.3636317395728Q197.82248219735504 483.4516785350967 184.20473041709053 441.16714140386574Q170.58697863682602 398.8826042726348 170.58697863682602 354.5490335707019Z"/>
    <path fill="#003848" transform="matrix(0.01300000 0 0 -0.01300000 115.609 78.000)" d="M376.60773143438456 -5.4509664292980675Q298.9019328585961 -5.4509664292980675 235.64710071210578 24.774516785350965Q172.39226856561547 55 126.53936927772126 106.5Q80.68646998982706 158 56.01002034587996 222.5Q31.33357070193286 287 31.33357070193286 355.4509664292981Q31.33357070193286 426.4509664292981 57.51002034587996 490.72548321464905Q83.68646998982706 555 130.53936927772128 605.5Q177.39226856561547 656 240.87258392675483 685.2745167853509Q304.3528992878942 714.5490335707019 379.5096642929807 714.5490335707019Q457.21546286876907 714.5490335707019 520.4702950152594 683.7745167853509Q583.7251271617497 653 629.0780264496439 601.0Q674.4309257375381 549 699.1073753814853 484.77451678535095Q723.7838250254324 420.5490335707019 723.7838250254324 353.0980671414039Q723.7838250254324 282.5490335707019 698.1073753814853 218.27451678535095Q672.4309257375381 154 625.5780264496439 103.5Q578.7251271617497 53 515.4702950152594 23.774516785350965Q452.21546286876907 -5.4509664292980675 376.60773143438456 -5.4509664292980675ZM170.58697863682602 354.5490335707019Q170.58697863682602 308.66642929806716 184.70473041709053 265.8328585961343Q198.82248219735504 222.99928789420142 225.41088504577823 189.63636826042725Q251.99928789420142 156.27344862665308 290.4602746693795 136.6556968463886Q328.9212614445575 117.03794506612411 378.0586978636826 117.03794506612411Q428.2942014242116 117.03794506612411 466.9806714140386 137.43021363173958Q505.6671414038657 157.82248219735504 531.7555442522889 192.18540183112918Q557.8439471007121 226.54832146490335 571.1871820956256 269.10737538148527Q584.5304170905392 311.66642929806716 584.5304170905392 355.4509664292981Q584.5304170905392 401.33357070193284 570.4126653102746 443.6671414038657Q556.2949135300101 486.0007121057986 529.431993896236 519.6381485249237Q502.56907426246187 553.2755849440489 464.15712105798576 572.3933367243134Q425.74516785350966 591.5110885045779 377.60773143438456 591.5110885045779Q327.37222787385554 591.5110885045779 288.9112410986775 571.3933367243134Q250.4502543234995 551.2755849440489 224.13636826042728 517.3636317395728Q197.82248219735504 483.4516785350967 184.20473041709053 441.16714140386574Q170.58697863682602 398.8826042726348 170.58697863682602 354.5490335707019Z"/>
    <path fill="#003848" transform="matrix(0.01300000 0 0 -0.01300000 127.537 78.000)" d="M74.17680569684639 0V710H332.3528992878942Q448.15676500508647 710 526.0096642929807 662.5Q603.8625635808748 615 642.98997965412 534.5Q682.1173957273652 454 682.1173957273652 356Q682.1173957273652 248 638.98997965412 168.0Q595.8625635808748 88 517.2841810783316 44.0Q438.7057985757884 0 332.3528992878942 0ZM542.863987792472 356Q542.863987792472 424.72583926754834 518.0991353001017 477.4810274669379Q493.3342828077314 530.2362156663276 446.35361139369274 559.8246185147507Q399.3729399796541 589.4130213631739 332.3528992878942 589.4130213631739H211.52828077314342V120.58697863682605H332.3528992878942Q400.3729399796541 120.58697863682605 447.12812817904376 151.44989827060022Q493.8833163784334 182.31281790437436 518.3736520854527 235.793489318413Q542.863987792472 289.27416073245166 542.863987792472 356Z"/>
    <path fill="#008FB4" transform="matrix(0.01400000 0 0 -0.01400000 36.000 96.000)" d="M31.33357070193286 360.4509664292981Q31.33357070193286 425.4509664292981 54.73550356052899 487.9509664292981Q78.13743641912512 550.4509664292981 123.21581892166836 601.7254832146491Q168.2942014242116 653 233.32355035605292 683.5Q298.3528992878942 714 380.60773143438456 714Q478.76449643947103 714 550.3722278738555 670.9509664292981Q621.97995930824 627.9019328585962 656.7838250254324 559L550.6084435401831 485.942014242116Q533.2161749745676 526.4323499491353 504.32390640895215 549.5501017293998Q475.4316378433367 572.6678535096643 441.9903357070193 582.0894710071211Q408.5490335707019 591.5110885045779 376.60773143438456 591.5110885045779Q325.27416073245166 591.5110885045779 286.5386571719227 570.8933367243134Q247.8031536113937 550.2755849440489 221.98926754832146 516.1381485249237Q196.17538148524923 482.0007121057986 183.38118006103764 439.9416581892167Q170.58697863682602 397.8826042726348 170.58697863682602 355.5490335707019Q170.58697863682602 308.66642929806716 185.70473041709053 265.3328585961343Q200.82248219735504 221.99928789420142 228.41088504577823 188.63636826042725Q255.99928789420142 155.27344862665308 294.4602746693795 135.88118006103764Q332.9212614445575 116.48891149542217 379.15676500508647 116.48891149542217Q411.6471007121058 116.48891149542217 445.68646998982706 127.45956256358087Q479.72583926754834 138.43021363173958 508.7652085452696 162.096998982706Q537.8045778229908 185.76378433367245 554.1968463886063 224.35218718209563L667.078026449644 159Q645.5289928789421 106.45096642929806 598.1760935910479 69.45096642929806Q550.8231943031536 32.45096642929807 491.84287894201424 13.225483214649035Q432.86256358087485 -6 375.15676500508647 -6Q299.4509664292981 -6 236.4216174974568 25.5Q173.39226856561547 57 127.53936927772126 109.5Q81.68646998982706 162 56.51002034587996 227.5Q31.33357070193286 293 31.33357070193286 360.4509664292981Z"/>
    <path fill="#008FB4" transform="matrix(0.01400000 0 0 -0.01400000 53.904 96.000)" d="M670.8818921668362 710V0H533.5304170905392V302.70651068158696H211.52828077314342V0H74.17680569684639V710H211.52828077314342V423.29348931841304H533.5304170905392V710Z"/>
    <path fill="#008FB4" transform="matrix(0.01400000 0 0 -0.01400000 72.634 96.000)" d="M374.84323499491353 -5.4509664292980675Q289.84323499491353 -5.4509664292980675 230.4903357070193 23.37258392675483Q171.13743641912512 52.19613428280773 134.5590539165819 102.01968463886064Q97.98067141403865 151.84323499491353 81.07873855544253 215.61775178026448Q64.17680569684639 279.39226856561544 64.17680569684639 348.2942014242116V710H201.52828077314342V348.2942014242116Q201.52828077314342 303.9606307222787 210.4498982706002 262.35254323499487Q219.37151576805695 220.74445574771107 239.31281790437436 188.057985757884Q259.25412004069176 155.37151576805695 292.36220752797556 136.20473041709053Q325.4702950152594 117.03794506612411 374.2942014242116 117.03794506612411Q424.1181078331638 117.03794506612411 457.4516785350967 136.4792472024415Q490.7852492370295 155.92054933875892 510.5010681586979 189.10701932858598Q530.2168870803662 222.29348931841304 539.1385045778229 263.6270600203459Q548.0601220752798 304.9606307222787 548.0601220752798 348.2942014242116V710H685.4115971515768V348.2942014242116Q685.4115971515768 275.39226856561544 667.5586978636826 211.11775178026448Q649.7057985757884 146.84323499491353 612.3528992878942 98.2942014242116Q575 49.74516785350966 516.1471007121058 22.147100712105797Q457.2942014242116 -5.4509664292980675 374.84323499491353 -5.4509664292980675Z"/>
    <path fill="#008FB4" transform="matrix(0.01400000 0 0 -0.01400000 91.434 96.000)" d="M74.17680569684639 0V710H388.0980671414039Q437.3528992878942 710 478.6077314343845 689.8235503560529Q519.8625635808748 669.6471007121058 550.215462868769 635.7942014242117Q580.5683621566633 601.9413021363174 597.2448118006104 559.8629196337741Q613.9212614445574 517.7845371312309 613.9212614445574 474.4316378433367Q613.9212614445574 429.0393692777213 598.352543234995 387.74516785350966Q582.7838250254324 346.4509664292981 554.0189725330621 315.22548321464905Q525.2541200406918 284 486.1166836215666 267.0393692777213L648.1954221770092 0H495.68718209562564L350.3729399796541 238.31424211597152H211.52828077314342V0ZM211.52828077314342 358.90122075279754H385.0393692777213Q410.7652085452696 358.90122075279754 430.8242624618515 374.2151068158698Q450.8833163784334 389.528992878942 462.77558494404883 415.86256358087485Q474.66785350966427 442.19613428280775 474.66785350966427 474.4316378433367Q474.66785350966427 507.66714140386574 460.9520345879959 533.5007121057986Q447.23621566632755 559.3342828077315 425.67716174974566 574.3736520854527Q404.1181078331638 589.4130213631739 379.4903357070193 589.4130213631739H211.52828077314342Z"/>
    <path fill="#008FB4" transform="matrix(0.01400000 0 0 -0.01400000 109.044 96.000)" d="M31.33357070193286 360.4509664292981Q31.33357070193286 425.4509664292981 54.73550356052899 487.9509664292981Q78.13743641912512 550.4509664292981 123.21581892166836 601.7254832146491Q168.2942014242116 653 233.32355035605292 683.5Q298.3528992878942 714 380.60773143438456 714Q478.76449643947103 714 550.3722278738555 670.9509664292981Q621.97995930824 627.9019328585962 656.7838250254324 559L550.6084435401831 485.942014242116Q533.2161749745676 526.4323499491353 504.32390640895215 549.5501017293998Q475.4316378433367 572.6678535096643 441.9903357070193 582.0894710071211Q408.5490335707019 591.5110885045779 376.60773143438456 591.5110885045779Q325.27416073245166 591.5110885045779 286.5386571719227 570.8933367243134Q247.8031536113937 550.2755849440489 221.98926754832146 516.1381485249237Q196.17538148524923 482.0007121057986 183.38118006103764 439.9416581892167Q170.58697863682602 397.8826042726348 170.58697863682602 355.5490335707019Q170.58697863682602 308.66642929806716 185.70473041709053 265.3328585961343Q200.82248219735504 221.99928789420142 228.41088504577823 188.63636826042725Q255.99928789420142 155.27344862665308 294.4602746693795 135.88118006103764Q332.9212614445575 116.48891149542217 379.15676500508647 116.48891149542217Q411.6471007121058 116.48891149542217 445.68646998982706 127.45956256358087Q479.72583926754834 138.43021363173958 508.7652085452696 162.096998982706Q537.8045778229908 185.76378433367245 554.1968463886063 224.35218718209563L667.078026449644 159Q645.5289928789421 106.45096642929806 598.1760935910479 69.45096642929806Q550.8231943031536 32.45096642929807 491.84287894201424 13.225483214649035Q432.86256358087485 -6 375.15676500508647 -6Q299.4509664292981 -6 236.4216174974568 25.5Q173.39226856561547 57 127.53936927772126 109.5Q81.68646998982706 162 56.51002034587996 227.5Q31.33357070193286 293 31.33357070193286 360.4509664292981Z"/>
    <path fill="#008FB4" transform="matrix(0.01400000 0 0 -0.01400000 126.948 96.000)" d="M670.8818921668362 710V0H533.5304170905392V302.70651068158696H211.52828077314342V0H74.17680569684639V710H211.52828077314342V423.29348931841304H533.5304170905392V710Z"/>
  </g>
</svg>
